<?xml version="1.0" encoding="UTF-8"?>
<svg version="1.1" xmlns="http://www.w3.org/2000/svg" width="500" height="500">
<path d="M0 0 C165 0 330 0 500 0 C500 165 500 330 500 500 C335 500 170 500 0 500 C0 335 0 170 0 0 Z " fill="#000000" transform="translate(0,0)"/>
<path d="M0 0 C17.00021544 -0.07142486 33.99976643 -0.06944606 51 0 C52.27877014 0.00517639 53.55754028 0.01035278 54.87506104 0.01568604 C62.59147661 0.0513749 70.30705316 0.11433808 78.02297974 0.20852661 C80.4863544 0.23593845 82.9498118 0.25678673 85.41329956 0.27072144 C105.13354904 0.39183854 124.3094013 1.36505188 140 15 C144.24774366 19.7574729 147.54190217 25.12291155 150 31 C150.35835937 31.83917969 150.71671875 32.67835938 151.0859375 33.54296875 C153.85002885 43.99690397 153.81737859 58.85599473 149.359375 68.7734375 C147.29964441 72.14713416 144.92144163 75.17677475 142.29296875 78.125 C141.86628906 78.74375 141.43960938 79.3625 141 80 C142.12200355 83.36601064 143.00415203 84.06243251 145.6875 86.25 C155.64991807 94.79175239 162.98026767 105.80628765 164.20263672 119.22436523 C164.92526295 136.09463182 162.19304485 150.51696246 151.6875 164.3125 C135.94363758 180.05636242 117.05944658 186.08673959 95.18936157 186.13882446 C93.77467828 186.13701966 92.35999524 186.13500977 90.9453125 186.1328125 C89.45518977 186.13382876 87.96506724 186.13516858 86.47494507 186.1368103 C82.50851976 186.13949554 78.5421339 186.1350728 74.57571411 186.12857056 C72.12542605 186.12500062 69.67514385 186.12338209 67.22485352 186.12231445 C42.13949146 186.10871197 17.07285883 185.84839767 -8 185 C-8 184.67 -8 184.34 -8 184 C-7.23558594 183.85304688 -6.47117187 183.70609375 -5.68359375 183.5546875 C13.78210323 179.47883759 29.90098493 171.07432328 44 157 C44.68449219 156.32710937 45.36898437 155.65421875 46.07421875 154.9609375 C65.23870006 134.85517518 70.50876712 108.84219181 72 82 C40.65 82 9.3 82 -23 82 C-23 93.88 -23 105.76 -23 118 C-7.49 118 8.02 118 24 118 C20.85218526 127.44344421 13.61722821 134.95319676 5 140 C-8.5673929 146.51162306 -22.14876446 149.56255513 -36.875 145.375 C-50.29204319 140.64835314 -60.80448107 132.28547889 -68 120 C-69.54672861 116.72825943 -70.83465218 113.42424477 -72 110 C-72.35707031 109.16210938 -72.71414062 108.32421875 -73.08203125 107.4609375 C-76.29500595 95.34733926 -75.89647327 78.14363253 -70 67 C-69.525625 66.08863281 -69.05125 65.17726563 -68.5625 64.23828125 C-60.56800679 50.45931098 -49.16779681 41.35678986 -34.0625 36.5625 C-19.18520563 33.78287812 -4.45380002 36.74197651 8 45.25 C14.99089397 50.45413943 20.80293303 56.31809561 25 64 C25 64.66 25 65.32 25 66 C33.22713561 61.04977434 40.85866195 55.47526869 48.49609375 49.671875 C49.10952637 49.20587891 49.72295898 48.73988281 50.35498047 48.25976562 C51.69583454 47.23293169 53.02372915 46.18919288 54.34765625 45.140625 C56 44 56 44 58 44 C45.62934538 22.55190257 28.25244194 9.98889075 5 2 C3.33928517 1.63817803 1.67351572 1.29704212 0 1 C0 0.67 0 0.34 0 0 Z " fill="#FCFCFC" transform="translate(192,124)"/>
<path d="M0 0 C8.1675 -0.0928125 8.1675 -0.0928125 16.5 -0.1875 C18.20220703 -0.21481201 19.90441406 -0.24212402 21.65820312 -0.27026367 C23.03254491 -0.27903909 24.40689459 -0.28668052 25.78125 -0.29296875 C26.82104004 -0.3159906 26.82104004 -0.3159906 27.88183594 -0.33947754 C34.22385209 -0.3428131 39.34628959 1.31127519 44.75 4.75 C50.03243733 10.03243733 52.12359243 15.87622504 52.25 23.25 C52.16945612 29.96198986 50.98966834 34.70422884 46.5625 39.8125 C45.716875 40.534375 44.87125 41.25625 44 42 C43.38125 42.556875 42.7625 43.11375 42.125 43.6875 C36.86292107 46.93760757 31.12944325 47.2865128 25.09765625 47.1953125 C24.13514954 47.19229126 24.13514954 47.19229126 23.15319824 47.18920898 C20.78955791 47.17885993 18.42602066 47.1509387 16.0625 47.125 C10.761875 47.08375 5.46125 47.0425 0 47 C0 31.49 0 15.98 0 0 Z " fill="#010101" transform="translate(265,228)"/>
<path d="M0 0 C4.70754235 1.95833762 7.30262762 5.69239896 9.8125 10 C12.21195578 17.19836735 11.88861822 25.72003991 8.75 32.625 C5.57391774 38.13563846 1.77824448 40.01141851 -4.1875 42 C-10.54807211 42.53903153 -14.87861791 41.63363485 -20.1875 38 C-25.85313219 32.18527222 -26.58322627 26.58019308 -26.55541992 18.67456055 C-26.37507587 11.69071561 -24.70495028 7.39157776 -19.6875 2.625 C-13.21913772 -1.57943548 -7.46800592 -2.2217676 0 0 Z " fill="#040404" transform="translate(373.1875,337)"/>
<path d="M0 0 C4.29 -0.0825 8.58 -0.165 13 -0.25 C14.33675781 -0.28641602 15.67351562 -0.32283203 17.05078125 -0.36035156 C24.20610602 -0.42676326 28.96787319 0.04568564 35 4 C39.75901927 9.12509768 40.29513481 12.41354151 40.21484375 19.23828125 C39.83673518 24.09869508 38.13875442 26.86124558 34.75 30.25 C27.62765395 34.78240203 20.23845019 34.24491464 12.0625 34.125 C8.081875 34.08375 4.10125 34.0425 0 34 C0 22.78 0 11.56 0 0 Z " fill="#020202" transform="translate(265,160)"/>
<path d="M0 0 C5.0428125 -0.0928125 5.0428125 -0.0928125 10.1875 -0.1875 C11.76374146 -0.22846802 11.76374146 -0.22846802 13.37182617 -0.27026367 C22.10553644 -0.34814602 22.10553644 -0.34814602 26 3 C28.33909307 6.5086396 28.41291057 7.87089433 28 12 C25.73529412 16.63235294 25.73529412 16.63235294 23 18 C23.78375 18.433125 24.5675 18.86625 25.375 19.3125 C28 21 28 21 30 24 C30.66624845 28.07463524 30.94496094 32.24356703 28.94921875 35.953125 C27.18683214 38.0950226 25.49210321 39.7539484 23 41 C21.2595583 41.08449628 19.51590278 41.10723024 17.7734375 41.09765625 C16.3800415 41.09390991 16.3800415 41.09390991 14.95849609 41.09008789 C13.77594238 41.08098389 12.59338867 41.07187988 11.375 41.0625 C5.744375 41.0315625 5.744375 41.0315625 0 41 C0 27.47 0 13.94 0 0 Z " fill="#F4F4F4" transform="translate(309,337)"/>
<path d="M0 0 C20 0 20 0 25 3 C27.11480682 5.6982018 27.92463308 7.55721934 28.5 10.9375 C27.68242019 15.94517631 24.53118518 18.46881482 21 22 C21.5775 22.598125 22.155 23.19625 22.75 23.8125 C26.23457644 28.74898329 29 34.88022156 29 41 C27.35 41 25.7 41 24 41 C23.38511719 39.28490234 23.38511719 39.28490234 22.7578125 37.53515625 C22.21391748 36.04413369 21.66962611 34.55325567 21.125 33.0625 C20.85558594 32.30775391 20.58617187 31.55300781 20.30859375 30.77539062 C19.08380586 26.64902908 19.08380586 26.64902908 16 24 C14.12943209 23.7724985 12.25314042 23.59037189 10.375 23.4375 C8.60125 23.293125 6.8275 23.14875 5 23 C5 28.94 5 34.88 5 41 C3.35 41 1.7 41 0 41 C0 27.47 0 13.94 0 0 Z " fill="#F1F1F1" transform="translate(257,337)"/>
<path d="M0 0 C1.134375 0.020625 2.26875 0.04125 3.4375 0.0625 C6.78135596 7.20335128 9.46001426 14.51313377 12.01171875 21.96679688 C12.6940878 23.95671125 13.38574427 25.94323743 14.078125 27.9296875 C14.51618084 29.20032934 14.95370083 30.47115608 15.390625 31.7421875 C15.78411133 32.88413574 16.17759766 34.02608398 16.58300781 35.20263672 C17.4375 38.0625 17.4375 38.0625 17.4375 41.0625 C15.7875 41.0625 14.1375 41.0625 12.4375 41.0625 C11.93134702 39.79410474 11.43280901 38.52266898 10.9375 37.25 C10.6590625 36.54230469 10.380625 35.83460938 10.09375 35.10546875 C9.4375 33.0625 9.4375 33.0625 9.4375 30.0625 C3.1675 30.0625 -3.1025 30.0625 -9.5625 30.0625 C-10.2225 33.0325 -10.8825 36.0025 -11.5625 39.0625 C-11.8925 39.7225 -12.2225 40.3825 -12.5625 41.0625 C-14.2125 41.0625 -15.8625 41.0625 -17.5625 41.0625 C-15.48119824 32.86750775 -12.895186 24.87924124 -10.11865234 16.89746094 C-9.42699748 14.90727985 -8.74248517 12.91473557 -8.05859375 10.921875 C-7.62020637 9.65350242 -7.18141974 8.38526775 -6.7421875 7.1171875 C-6.34757324 5.97749512 -5.95295898 4.83780273 -5.54638672 3.66357422 C-4.18839184 0.07348056 -4.18839184 0.07348056 0 0 Z " fill="#F0F0F0" transform="translate(138.5625,336.9375)"/>
<path d="M0 0 C4.70754235 1.95833762 7.30262762 5.69239896 9.8125 10 C12.21195578 17.19836735 11.88861822 25.72003991 8.75 32.625 C5.57391774 38.13563846 1.77824448 40.01141851 -4.1875 42 C-10.54807211 42.53903153 -14.87861791 41.63363485 -20.1875 38 C-25.85313219 32.18527222 -26.58322627 26.58019308 -26.55541992 18.67456055 C-26.37507587 11.69071561 -24.70495028 7.39157776 -19.6875 2.625 C-13.21913772 -1.57943548 -7.46800592 -2.2217676 0 0 Z M-19.1875 9 C-22.01239544 14.82452667 -22.11323346 21.12586888 -20.6171875 27.38671875 C-19.36647073 30.94797017 -18.00565732 33.51855758 -15.1875 36 C-10.57703364 37.81125464 -5.66853379 37.43559817 -1 36.0625 C3.58597964 32.69944826 5.26350695 28.26034648 6.1953125 22.7265625 C6.50319855 16.87672753 4.91446564 11.9447175 1.8125 7 C-1.23137626 4.04564951 -4.02127306 3.75225308 -8.125 3.5 C-13.48390953 3.6677155 -15.64942371 5.01966417 -19.1875 9 Z " fill="#EEEEEE" transform="translate(373.1875,337)"/>
<path d="M0 0 C2.78808713 1.97206163 4.60496123 4.02677175 6.5625 6.8125 C5.9025 7.4725 5.2425 8.1325 4.5625 8.8125 C1.5625 8.8125 1.5625 8.8125 0 7.375 C-0.474375 6.859375 -0.94875 6.34375 -1.4375 5.8125 C-5.38000588 3.84124706 -10.13969715 4.36532976 -14.4375 4.8125 C-18.63292935 7.12426719 -19.98437022 9.35202337 -21.4375 13.8125 C-22.07733724 20.45185008 -22.55101168 27.229877 -18.4375 32.8125 C-16.52323424 35.02126818 -15.26319528 35.72884607 -12.35546875 36.0234375 C-8.14116609 36.09332643 -4.6210598 35.64921196 -0.4375 34.8125 C0.2225 30.8525 0.8825 26.8925 1.5625 22.8125 C-2.3975 22.8125 -6.3575 22.8125 -10.4375 22.8125 C-10.4375 21.4925 -10.4375 20.1725 -10.4375 18.8125 C-4.8275 18.8125 0.7825 18.8125 6.5625 18.8125 C6.5625 26.0725 6.5625 33.3325 6.5625 40.8125 C4.9125 40.8125 3.2625 40.8125 1.5625 40.8125 C1.2325 39.8225 0.9025 38.8325 0.5625 37.8125 C-0.4275 38.4725 -1.4175 39.1325 -2.4375 39.8125 C-6.49570726 42.10342346 -9.85076014 42.70637253 -14.4375 41.8125 C-19.2389144 39.98757217 -22.66297133 37.12843349 -25.4375 32.8125 C-28.23671777 25.73866447 -28.80635768 17.63679843 -26.71484375 10.265625 C-21.6789362 -0.58094511 -10.93670963 -3.77813605 0 0 Z " fill="#EEEEEE" transform="translate(75.4375,337.1875)"/>
<path d="M0 0 C8.58 0 17.16 0 26 0 C26 1.32 26 2.64 26 4 C19.07 4 12.14 4 5 4 C5 8.29 5 12.58 5 17 C10.94 17 16.88 17 23 17 C23 18.65 23 20.3 23 22 C17.06 22 11.12 22 5 22 C5 26.95 5 31.9 5 37 C11.93 37 18.86 37 26 37 C26 38.32 26 39.64 26 41 C17.42 41 8.84 41 0 41 C0 27.47 0 13.94 0 0 Z " fill="#EFEFEF" transform="translate(222,337)"/>
<path d="M0 0 C2.84183924 1.96222233 4.64633716 3.99671057 6.625 6.8125 C5.965 7.8025 5.305 8.7925 4.625 9.8125 C1.57639986 8.79629995 0.75833078 8.03858429 -1.375 5.8125 C-5.32896963 3.83551519 -10.07619353 4.24180708 -14.375 4.8125 C-17.27183868 7.0140974 -18.76797231 8.59844462 -20.375 11.8125 C-20.52612939 14.43110735 -20.60633862 17.00540882 -20.625 19.625 C-20.645625 20.33720703 -20.66625 21.04941406 -20.6875 21.78320312 C-20.7291411 27.40995679 -19.44438856 30.50433584 -15.75 34.625 C-12.02609479 36.48695261 -8.45451516 36.35157879 -4.375 35.8125 C-1.19074678 34.45749863 0.16456902 33.57988497 1.9375 30.625 C2.164375 30.026875 2.39125 29.42875 2.625 28.8125 C3.945 29.1425 5.265 29.4725 6.625 29.8125 C6.32859143 33.27059994 5.66153935 34.76760879 3.4375 37.5 C-0.52629748 40.75912237 -3.70071879 41.62646875 -8.75 42.1875 C-14.65289159 41.57685604 -19.30461616 39.36577514 -23.25 34.875 C-27.93703513 28.12015525 -28.14490037 21.8623444 -27.375 13.8125 C-25.69215599 7.58496948 -21.66077933 3.35679287 -16.375 -0.1875 C-10.93882947 -1.99955684 -5.39284814 -1.8974836 0 0 Z " fill="#EBEBEB" transform="translate(189.375,337.1875)"/>
<path d="M0 0 C9.24 0 18.48 0 28 0 C28 5.62291288 28 5.62291288 25.47265625 8.96875 C24.66090942 10.06437256 24.66090942 10.06437256 23.83276367 11.18212891 C23.24857666 11.94702637 22.66438965 12.71192383 22.0625 13.5 C20.87132146 15.10076359 19.68122484 16.7023328 18.4921875 18.3046875 C17.90147461 19.09456055 17.31076172 19.88443359 16.70214844 20.69824219 C14.29149842 23.95808275 11.97923099 27.28095252 9.6875 30.625 C8.470625 32.39875 7.25375 34.1725 6 36 C13.26 36.33 20.52 36.66 28 37 C28 38.32 28 39.64 28 41 C18.76 41 9.52 41 0 41 C0 34.61417877 1.15116729 32.7140439 4.875 28.0625 C5.88184983 26.75225673 6.88567362 25.43968348 7.88671875 24.125 C8.40153809 23.45210938 8.91635742 22.77921875 9.44677734 22.0859375 C13.55236296 16.57224314 17.22689044 10.74168846 21 5 C14.07 4.67 7.14 4.34 0 4 C0 2.68 0 1.36 0 0 Z " fill="#F3F3F3" transform="translate(426,337)"/>
<path d="M0 0 C2.17578125 -0.53125 2.17578125 -0.53125 5 0 C7.14418979 2.5930476 8.6268724 5.52984944 10.1875 8.5 C11.04959225 10.09721951 11.91776162 11.69117903 12.79296875 13.28125 C13.1696167 13.99345703 13.54626465 14.70566406 13.93432617 15.43945312 C14.28599854 15.95443359 14.6376709 16.46941406 15 17 C15.66 17 16.32 17 17 17 C17.63808594 15.85660156 18.27617187 14.71320313 18.93359375 13.53515625 C19.76814187 12.04422197 20.60278204 10.55333921 21.4375 9.0625 C21.85837891 8.30775391 22.27925781 7.55300781 22.71289062 6.77539062 C23.31713867 5.69741211 23.31713867 5.69741211 23.93359375 4.59765625 C24.30540771 3.93258057 24.67722168 3.26750488 25.06030273 2.58227539 C26 1 26 1 27 0 C28.66617115 -0.04063832 30.33388095 -0.042721 32 0 C30.77600897 2.50265163 29.54618278 5.00212903 28.3125 7.5 C27.94890381 8.2432251 27.58530762 8.9864502 27.21069336 9.75219727 C25.39677087 13.40939635 23.5918362 16.71631595 21.0625 19.9375 C17.13216503 25.7274901 18.08411924 34.27046116 18 41 C16.35 41 14.7 41 13 41 C13.06703125 39.94425781 13.1340625 38.88851562 13.203125 37.80078125 C13.52563399 24.1650388 8.46353316 15.08738495 1.08569336 3.86914062 C0 2 0 2 0 0 Z " fill="#F1F1F1" transform="translate(390,337)"/>
<path d="M0 0 C3.83625 -0.12375 3.83625 -0.12375 7.75 -0.25 C8.54889648 -0.28641602 9.34779297 -0.32283203 10.17089844 -0.36035156 C13.63500865 -0.41445102 15.63343609 -0.26051398 18.484375 1.765625 C20.07515164 4.11079056 20.54368828 5.2039498 20.5 8 C20.5103125 8.66 20.520625 9.32 20.53125 10 C19.71773036 13.06266217 18.58270676 14.16449142 16 16 C13.07545478 16.29362904 10.64493292 16.38195943 7.75 16.25 C5.1925 16.1675 2.635 16.085 0 16 C0 10.72 0 5.44 0 0 Z " fill="#060606" transform="translate(314,358)"/>
<path d="M0 0 C1.65 0 3.3 0 5 0 C5 12.21 5 24.42 5 37 C11.6 37 18.2 37 25 37 C25 38.32 25 39.64 25 41 C16.75 41 8.5 41 0 41 C0 27.47 0 13.94 0 0 Z " fill="#F1F1F1" transform="translate(93,337)"/>
<path d="M0 0 C2.0625 -0.061875 4.125 -0.12375 6.25 -0.1875 C7.99023438 -0.23970703 7.99023438 -0.23970703 9.765625 -0.29296875 C13.26305185 0.02382716 14.6327199 0.43688651 17 3 C17.49609375 4.9375 17.49609375 4.9375 17.4375 7 C17.43621094 7.680625 17.43492187 8.36125 17.43359375 9.0625 C16.84537186 11.69095097 16.26603115 12.51234134 14 14 C9.30736629 14.40971773 4.71873609 14.12987347 0 14 C0 9.38 0 4.76 0 0 Z " fill="#010101" transform="translate(262,341)"/>
<path d="M0 0 C2.24940295 -0.08119503 4.49964871 -0.13927819 6.75 -0.1875 C8.00296875 -0.22230469 9.2559375 -0.25710938 10.546875 -0.29296875 C14.15521782 0.01316893 15.54892755 0.38430328 18 3 C18.51020728 7.08165827 18.31361802 8.52957297 16 12 C10.83608171 13.7213061 5.40708764 13.05353552 0 13 C0 8.71 0 4.42 0 0 Z " fill="#060606" transform="translate(314,341)"/>
<path d="M0 0 C1.65 0 3.3 0 5 0 C5 13.53 5 27.06 5 41 C3.35 41 1.7 41 0 41 C0 27.47 0 13.94 0 0 Z " fill="#EDEDED" transform="translate(205,337)"/>
<path d="M0 0 C2 1 2 1 2.77783203 2.73413086 C3.01872559 3.47026611 3.25961914 4.20640137 3.5078125 4.96484375 C3.77207031 5.76470703 4.03632813 6.56457031 4.30859375 7.38867188 C4.57800781 8.22978516 4.84742188 9.07089844 5.125 9.9375 C5.40214844 10.77474609 5.67929688 11.61199219 5.96484375 12.47460938 C8 18.70539563 8 18.70539563 8 21 C3.05 21 -1.9 21 -7 21 C-5.13825211 13.73918325 -2.94513033 6.89190398 0 0 Z " fill="#181818" transform="translate(138,342)"/>
</svg>
